<!DOCTYPE svg PUBLIC "-//W3C//DTD SVG 1.1//EN" "http://www.w3.org/Graphics/SVG/1.1/DTD/svg11.dtd">

<!-- Uploaded to: SVG Repo, www.svgrepo.com, Transformed by: SVG Repo Mixer Tools -->
<svg width="800px" height="800px" viewBox="-6.16 0 76.491 76.491" xmlns="http://www.w3.org/2000/svg" fill="#000000">

<g id="SVGRepo_bgCarrier" stroke-width="0"/>

<g id="SVGRepo_tracerCarrier" stroke-linecap="round" stroke-linejoin="round"/>

<g id="SVGRepo_iconCarrier"> <g id="Group_6" data-name="Group 6" transform="translate(-955.29 -153.363)"> <circle id="Ellipse_6" data-name="Ellipse 6" cx="6.9" cy="6.9" r="6.9" transform="translate(955.6 188.124)" fill="#FFB89A"/> <circle id="Ellipse_7" data-name="Ellipse 7" cx="5.71" cy="5.71" r="5.71" transform="translate(956.79 199.314)" fill="none" stroke="#000000" stroke-linecap="round" stroke-miterlimit="10" stroke-width="3" opacity="0.15"/> <line id="Line_3" data-name="Line 3" y2="26.294" transform="translate(962.5 203.56)" fill="none" stroke="#000000" stroke-miterlimit="10" stroke-width="3" opacity="0.15"/> <path id="Path_14" data-name="Path 14" d="M962.5,188.124a6.922,6.922,0,0,1,1.5.168V153.363h-3v34.929A6.922,6.922,0,0,1,962.5,188.124Z" fill="#000000"/> <path id="Path_15" data-name="Path 15" d="M962.5,201.924a6.922,6.922,0,0,1-1.5-.168v18.1h3v-18.1A6.922,6.922,0,0,1,962.5,201.924Z" fill="#000000"/> <circle id="Ellipse_8" data-name="Ellipse 8" cx="6.9" cy="6.9" r="6.9" transform="translate(1005.35 188.124)" fill="#FFB89A"/> <circle id="Ellipse_9" data-name="Ellipse 9" cx="5.71" cy="5.71" r="5.71" transform="translate(1006.54 199.314)" fill="none" stroke="#000000" stroke-linecap="round" stroke-miterlimit="10" stroke-width="3" opacity="0.15"/> <line id="Line_4" data-name="Line 4" y2="26.294" transform="translate(1012.25 203.56)" fill="none" stroke="#000000" stroke-miterlimit="10" stroke-width="3" opacity="0.15"/> <path id="Path_16" data-name="Path 16" d="M1012.25,188.124a6.922,6.922,0,0,0-1.5.168V153.363h3v34.929A6.922,6.922,0,0,0,1012.25,188.124Z" fill="#000000"/> <path id="Path_17" data-name="Path 17" d="M1012.25,201.924a6.922,6.922,0,0,0,1.5-.168v18.1h-3v-18.1A6.922,6.922,0,0,0,1012.25,201.924Z" fill="#000000"/> <circle id="Ellipse_10" data-name="Ellipse 10" cx="6.9" cy="6.9" r="6.9" transform="translate(980.6 168.124)" fill="#FFB89A"/> <circle id="Ellipse_11" data-name="Ellipse 11" cx="5.71" cy="5.71" r="5.71" transform="translate(981.79 179.314)" fill="none" stroke="#000000" stroke-linecap="round" stroke-miterlimit="10" stroke-width="3" opacity="0.15"/> <line id="Line_5" data-name="Line 5" y2="46.294" transform="translate(987.5 183.56)" fill="none" stroke="#000000" stroke-miterlimit="10" stroke-width="3" opacity="0.15"/> <path id="Path_18" data-name="Path 18" d="M987.5,168.124a6.922,6.922,0,0,0-1.5.168V153.363h3v14.929A6.922,6.922,0,0,0,987.5,168.124Z" fill="#000000"/> <path id="Path_19" data-name="Path 19" d="M987.5,181.924a6.922,6.922,0,0,0,1.5-.168v38.1h-3v-38.1A6.922,6.922,0,0,0,987.5,181.924Z" fill="#000000"/> </g> </g>

</svg>